HIERARCHY
ROOT Hips
{
  OFFSET -102.467 93.6631 130.069
  CHANNELS 6 Xposition Yposition Zposition Zrotation Xrotation Yrotation
  JOINT LeftUpLeg
  {
    OFFSET 8.64259 1.95398 -2.38835
    CHANNELS 3 Zrotation Xrotation Yrotation
    JOINT LeftLeg
    {
      OFFSET 43.7702 0 0
      CHANNELS 3 Zrotation Xrotation Yrotation
      JOINT LeftFoot
      {
        OFFSET 40.6238 0 0
        CHANNELS 3 Zrotation Xrotation Yrotation
        JOINT LeftToeBase
        {
          OFFSET 12.7242 0 0
          CHANNELS 3 Zrotation Xrotation Yrotation
          End Site
          {
            OFFSET 0 0 0
          }
        }
      }
    }
  }
  JOINT RightUpLeg
  {
    OFFSET -8.2249 1.95398 -2.59336
    CHANNELS 3 Zrotation Xrotation Yrotation
    JOINT RightLeg
    {
      OFFSET 43.5653 0 0
      CHANNELS 3 Zrotation Xrotation Yrotation
      JOINT RightFoot
      {
        OFFSET 40.6238 0 0
        CHANNELS 3 Zrotation Xrotation Yrotation
        JOINT RightToeBase
        {
          OFFSET 12.7242 0 0
          CHANNELS 3 Zrotation Xrotation Yrotation
          End Site
          {
            OFFSET 0 0 0
          }
        }
      }
    }
  }
  JOINT Spine
  {
    OFFSET 0.165834 0.87714 6.61349
    CHANNELS 3 Zrotation Xrotation Yrotation
    JOINT Spine1
    {
      OFFSET 7.38963 1.71661e-005 0
      CHANNELS 3 Zrotation Xrotation Yrotation
      JOINT Spine2
      {
        OFFSET 11.9445 1.14441e-005 0
        CHANNELS 3 Zrotation Xrotation Yrotation
        JOINT Spine3
        {
          OFFSET 14.7254 4.19617e-005 0
          CHANNELS 3 Zrotation Xrotation Yrotation
          JOINT Spine4
          {
            OFFSET 10.9679 0 0
            CHANNELS 3 Zrotation Xrotation Yrotation
            JOINT RightShoulder
            {
              OFFSET 2.46616 -1.6653 3.69651
              CHANNELS 3 Zrotation Xrotation Yrotation
              JOINT RightArm
              {
                OFFSET 13.0012 0 0
                CHANNELS 3 Zrotation Xrotation Yrotation
                JOINT RightForeArm
                {
                  OFFSET 28.7848 1.52588e-005 0
                  CHANNELS 3 Zrotation Xrotation Yrotation
                  JOINT RightHand
                  {
                    OFFSET 26.5688 1.52588e-005 0
                    CHANNELS 3 Zrotation Xrotation Yrotation
                    End Site
                    {
                      OFFSET 0 0 0
                    }
                  }
                }
              }
            }
            JOINT LeftShoulder
            {
              OFFSET 2.38034 -1.29275 -3.7523
              CHANNELS 3 Zrotation Xrotation Yrotation
              JOINT LeftArm
              {
                OFFSET 16.3182 6.10351e-005 0
                CHANNELS 3 Zrotation Xrotation Yrotation
                JOINT LeftForeArm
                {
                  OFFSET 27.0901 0 0
                  CHANNELS 3 Zrotation Xrotation Yrotation
                  JOINT LeftHand
                  {
                    OFFSET 24.5451 1.52588e-005 0
                    CHANNELS 3 Zrotation Xrotation Yrotation
                    End Site
                    {
                      OFFSET 0 0 0
                    }
                  }
                }
              }
            }
            JOINT Neck
            {
              OFFSET 5.0226 -0.0266342 0
              CHANNELS 3 Zrotation Xrotation Yrotation
              JOINT Head
              {
                OFFSET 6.69363 2.86102e-005 0
                CHANNELS 3 Zrotation Xrotation Yrotation
                End Site
                {
                  OFFSET 0 0 0
                }
              }
            }
          }
        }
      }
    }
  }
}
MOTION
Frames:	18
Frame Time:	0.0416667
-6.64756 98.4185 2.59949 112.971 -85.8111 113.159 -174.517 3.18957 91.6925 -14.0869 8.28569 2.48232 66.0835 3.35125 0.257706 29.7017 -0.104954 0.0215191 174.66 3.04582 87.8689 -15.0085 -2.72135 0.177717 67.0421 -2.56642 1.16808 29.5475 -0.0913513 0.531367 -0.285425 7.18879 -90.2128 12.4953 -0.668333 -0.347853 0.824479 -0.68299 -0.318109 -21.7112 -0.532888 -0.53263 -1.69861 -0.532888 -0.532635 101.022 -51.6713 -83.9172 29.0352 -12.4595 -6.10917 -1.42812 -8.4898 -13.2948 -8.03442 -0.30335 -0.835147 -83.241 -53.7378 89.0193 -28.553 6.62224 -16.9095 2.32458 26.2622 -6.83363 -2.95109 -0.0906784 -3.30785 12.3857 -0.910023 3.16103 -20.4535 -1.11981 -3.84597 
-6.69564 98.4534 2.60684 117.296 -85.9142 117.296 -174.566 2.72367 91.5615 -13.7151 7.07262 2.55559 66.3635 2.81112 -1.54781 28.7111 0.084787 1.18031 174.501 2.7321 87.6628 -14.8143 -3.08435 0.205458 67.0416 -2.85771 0.802336 29.9357 -0.0734485 1.15566 -0.280487 7.21907 -90.1859 12.4349 -0.645671 -0.297279 0.764107 -0.658122 -0.268583 -21.7717 -0.526478 -0.477582 -1.75905 -0.526475 -0.47759 101.106 -51.8343 -83.7846 28.8106 -12.7292 -6.25009 -0.752514 -6.30304 -13.6537 -10.2268 -0.267845 -2.25148 -83.0668 -54.1132 89.3052 -28.0338 6.81854 -16.4168 2.34209 24.924 -7.50108 -0.648476 -0.0905105 -4.80527 12.7324 -0.650052 3.60036 -20.9914 -0.868341 -4.50337 
-6.71345 98.4423 2.51013 117.732 -86.1686 118.026 -174.375 3.10026 91.8662 -14.124 7.29673 2.49326 66.2739 2.90284 -1.05096 29.3249 0.00945707 1.02039 174.635 2.96164 87.9659 -14.8662 -3.34603 0.286958 66.6943 -2.81723 0.51168 29.9644 -0.0611023 1.26348 -0.263031 7.21633 -90.2033 12.4403 -0.619238 -0.334964 0.76946 -0.633377 -0.307387 -21.7662 -0.489936 -0.50558 -1.75351 -0.489947 -0.505589 100.973 -52.1138 -83.983 28.4159 -12.8551 -6.33008 -0.747057 -5.92625 -13.9973 -9.83962 -0.273958 -2.03856 -82.4672 -54.4361 90.1979 -27.3488 7.3023 -16.5881 2.37502 24.838 -8.2728 -0.926501 -0.0905775 -4.27083 12.7378 -0.715087 3.08204 -20.8391 -0.947901 -3.55833 
-6.76702 98.423 2.45772 119.903 -86.1745 120.201 -174.29 3.02184 91.9237 -14.1824 7.13587 2.45927 66.5377 3.05922 -1.10231 28.8224 0.0418056 0.694138 174.641 2.74903 87.9855 -14.7119 -3.30294 0.253091 66.9516 -2.9349 0.724685 29.6827 0.0264419 1.40653 -0.251474 7.22876 -90.2158 12.4154 -0.602196 -0.362129 0.744508 -0.617548 -0.33528 -21.791 -0.465524 -0.526375 -1.77834 -0.465525 -0.526374 101.025 -51.988 -83.9061 28.3526 -12.8883 -6.38784 -0.758417 -6.06389 -13.963 -9.74 -0.269892 -2.05085 -82.143 -54.9312 90.7014 -27.1331 7.05025 -16.6463 2.65969 25.2035 -8.60219 -1.3615 -0.09017 -4.72367 12.3092 -0.591249 3.52265 -20.6248 -0.86487 -4.01385 
-6.77876 98.4243 2.42312 119.964 -86.1445 120.205 -174.342 3.06294 91.8557 -14.2385 7.45262 2.45013 66.2414 2.98823 -0.852239 29.2577 0.0185357 1.05856 174.463 2.84069 87.8495 -14.8135 -3.72602 0.453102 66.8217 -2.99747 0.406521 30.0041 -0.112345 1.02066 -0.255845 7.23671 -90.2 12.3996 -0.603368 -0.330596 0.728727 -0.617335 -0.303713 -21.8069 -0.476122 -0.496655 -1.7942 -0.47612 -0.496647 100.975 -52.0589 -83.98 28.4674 -12.8386 -6.27523 -0.787697 -6.37533 -13.8904 -10.1468 -0.32316 -1.5433 -82.0431 -55.1596 90.8605 -27.2339 6.9082 -16.5763 2.51967 24.6134 -8.24498 -0.0836457 -0.0891589 -4.58657 12.2133 -0.733807 3.2632 -20.4162 -0.975477 -3.80205 
-6.79646 98.4319 2.30544 120.946 -85.9579 121.17 -174.437 3.12244 91.8411 -14.5317 7.14154 2.56472 66.4838 2.94527 -1.3814 28.9599 0.0648893 1.28059 174.527 2.7987 87.9164 -14.909 -3.7385 0.374496 66.6318 -3.08516 -0.0333556 30.2776 -0.140751 1.21422 -0.260018 7.26406 -90.1761 12.345 -0.600228 -0.283503 0.674215 -0.612127 -0.256818 -21.8615 -0.487276 -0.450793 -1.84884 -0.48728 -0.450798 100.93 -52.5151 -84.0388 28.1808 -12.9703 -5.89615 -0.723969 -6.09291 -13.9615 -9.74599 -0.302425 -1.6495 -82.0045 -54.9042 90.8983 -27.3547 6.96212 -16.2932 2.60392 24.3668 -8.55618 -0.781434 -0.0880669 -4.00467 12.2796 -0.907975 2.93426 -20.2279 -1.07502 -3.78623 
-6.80963 98.4397 2.24782 121.852 -85.8436 122.08 -174.401 3.00478 91.8681 -14.4272 7.55551 2.54469 66.2446 2.96237 -1.07795 29.2722 0.0329096 1.29283 174.51 2.58603 87.8888 -14.7286 -3.25183 0.329242 66.9494 -2.93601 0.782186 29.4881 0.0110014 1.05185 -0.244628 7.28619 -90.1896 12.3007 -0.576069 -0.313506 0.629862 -0.589316 -0.287852 -21.9057 -0.455223 -0.472153 -1.89306 -0.455226 -0.47215 101.056 -52.3363 -83.8518 28.3438 -12.5312 -5.73237 -0.790481 -6.40329 -13.5044 -9.50781 -0.285012 -1.7791 -82.0857 -55.1552 90.7992 -27.2494 7.00109 -16.1049 2.48685 24.517 -8.44366 -0.914179 -0.0872702 -3.96224 12.3376 -0.922124 3.03422 -20.057 -1.13348 -3.69526 
-6.82307 98.438 2.21186 121.204 -85.7499 121.389 -174.477 2.98484 91.8008 -14.3626 7.14296 2.60426 66.4588 2.96243 -1.33828 28.6972 0.0701255 0.930175 174.413 2.75288 87.8292 -15.0117 -3.57942 0.448107 66.8269 -3.03524 0.276079 29.7728 -0.019452 1.25175 -0.240672 7.30004 -90.1812 12.273 -0.564155 -0.298199 0.602184 -0.576732 -0.273088 -21.9334 -0.448458 -0.453966 -1.92073 -0.448459 -0.453971 101.262 -52.3292 -83.5389 28.3366 -12.6489 -5.72099 -0.563066 -6.47383 -12.9019 -9.80201 -0.307954 -1.60645 -81.9511 -55.2271 90.9968 -27.1551 7.01042 -16.0339 2.38752 25.2137 -8.19066 -1.19781 -0.0873069 -4.05985 12.2838 -1.02474 3.02344 -19.4679 -1.20787 -4.00107 
-6.83946 98.4482 2.17562 121.444 -85.8124 121.734 -174.477 3.06662 91.9156 -14.4237 7.17129 2.66582 66.3527 2.80609 -1.58002 29.1066 0.056039 1.37297 174.418 2.62604 87.9287 -14.5765 -3.96477 0.537765 66.2774 -3.0604 -0.20628 30.386 -0.178855 1.13653 -0.245221 7.30194 -90.1862 12.2692 -0.575604 -0.307042 0.598364 -0.588566 -0.281407 -21.9372 -0.456715 -0.465838 -1.92456 -0.456721 -0.465844 101.088 -52.3335 -83.8031 28.3554 -12.4041 -5.41029 -0.983978 -7.82044 -12.742 -8.42496 -0.320913 -0.791356 -81.7031 -55.4372 91.365 -26.9788 6.79458 -15.8225 2.48416 26.2219 -8.11213 -1.69604 -0.0886916 -4.05959 12.169 -0.954659 3.00078 -19.0907 -1.14407 -3.99775 
-6.86023 98.4569 2.18457 122.832 -85.8775 122.854 -174.524 2.80426 91.653 -14.0708 7.333 2.55983 66.1114 2.92604 -1.05765 29.1734 0.0517317 1.4052 174.281 2.85531 87.618 -15.1571 -3.69258 0.510593 66.8411 -2.98381 0.356393 29.9432 -0.0565207 1.25862 -0.241507 7.33914 -90.1647 12.195 -0.55795 -0.266517 0.524136 -0.569133 -0.241712 -22.0115 -0.45206 -0.421886 -1.99883 -0.452054 -0.421882 100.985 -52.183 -83.962 28.421 -12.2885 -5.31072 -0.987203 -7.64956 -12.7789 -8.49678 -0.306355 -1.04194 -81.7382 -55.5332 91.3209 -26.8613 6.90508 -15.6488 2.30174 25.3355 -8.09641 -1.14683 -0.0936692 -4.67147 12.6549 -0.973732 3.32272 -18.6699 -1.22256 -4.36496 
-6.86766 98.4487 2.17553 122.301 -85.9146 122.382 -174.498 2.87627 91.7194 -14.0979 7.15498 2.57109 66.2235 2.91245 -1.23804 29.0518 0.0552952 1.27051 174.279 2.86301 87.6703 -15.06 -3.77063 0.56 66.8513 -3.03365 0.377472 29.636 -0.0151982 1.09226 -0.225497 7.35961 -90.1638 12.154 -0.525699 -0.268615 0.483159 -0.537003 -0.24522 -22.0524 -0.420658 -0.414186 -2.03973 -0.420659 -0.414188 101.051 -52.3252 -83.8593 28.2745 -12.5418 -5.44599 -0.720647 -7.37573 -12.5286 -8.94531 -0.328291 -0.959607 -82.1445 -55.318 90.7263 -26.7948 7.22253 -15.5796 2.03318 25.4107 -7.88147 -0.836591 -0.100902 -5.06955 13.1655 -1.01866 3.18184 -18.8217 -1.28804 -3.99153 
-6.91989 98.4372 2.22359 119.596 -86.0144 119.735 -174.514 3.06704 91.7878 -14.0965 6.69215 2.61528 66.4551 2.81905 -1.70237 28.6486 0.0840658 1.06058 174.427 2.88618 87.8486 -14.7519 -3.81919 0.500452 66.6899 -3.21357 -0.0857139 30.1334 -0.0549126 1.51951 -0.211085 7.33003 -90.1762 12.2132 -0.503 -0.295569 0.542278 -0.515519 -0.273156 -21.9931 -0.390919 -0.433085 -1.98048 -0.390914 -0.433083 100.835 -52.5249 -84.1822 27.7763 -13.5492 -5.47426 -0.474182 -8.04598 -12.0352 -8.81145 -0.336278 -0.781162 -82.9721 -56.116 89.6098 -25.4418 7.91072 -15.7928 0.948304 26.3407 -6.90955 -0.45284 -0.0935442 -4.55748 13.3085 -1.04734 3.331 -18.9036 -1.36522 -3.91344 
-6.94643 98.42 2.30152 116.615 -86.0619 116.895 -174.614 3.38636 91.8571 -14.3694 6.9248 2.73082 66.3378 2.76739 -1.47838 29.0677 0.0530615 1.26967 174.439 3.04172 87.9911 -14.8013 -3.76208 0.591721 66.7699 -3.25146 -0.0708891 29.9644 -0.115381 0.950966 -0.206457 7.29703 -90.1851 12.2791 -0.498039 -0.313515 0.608196 -0.51136 -0.2913 -21.9271 -0.380795 -0.448709 -1.91451 -0.380794 -0.448707 100.105 -52.9396 -85.2705 26.9392 -15.2799 -6.3198 0.36426 -8.91489 -10.5985 -9.1601 -0.315659 -1.2325 -85.2828 -58.2229 86.5876 -21.602 8.951 -17.0631 -1.8016 29.1757 -4.14939 -0.703898 -0.0883484 -4.22075 13.4402 -0.905751 3.36734 -18.8517 -1.25703 -3.7957 
-7.0076 98.4328 2.35309 115.36 -85.6423 115.556 -174.581 3.23285 91.8777 -14.2547 7.28003 2.71881 66.3871 2.82159 -1.62762 28.8485 0.0763883 1.27357 174.356 2.91496 87.925 -14.9132 -3.2133 0.600234 66.9093 -3.08913 0.255853 29.7475 0.0105117 1.39658 -0.248767 7.28742 -90.1722 12.2984 -0.576069 -0.278921 0.627506 -0.587788 -0.253297 -21.9081 -0.465611 -0.43915 -1.89548 -0.465617 -0.439162 99.1165 -53.8162 -86.7105 24.6 -18.4258 -8.59853 1.93291 -10.187 -8.10069 -8.32044 -0.233348 -2.01546 -87.8176 -59.8409 83.3352 -18.6852 8.9964 -20.1876 -5.56846 36.0348 0.304514 -2.9455 -0.0938979 -4.45188 14.1105 -0.919456 3.47816 -20.2066 -1.20311 -4.29467 
-7.03907 98.3972 2.41791 114.782 -85.375 114.902 -174.666 3.28813 91.8003 -14.5207 7.69795 2.76312 66.2887 2.80583 -1.31869 29.2031 0.0477572 1.39612 174.241 2.84011 87.8556 -15.0314 -3.19342 0.684562 66.9577 -3.22436 -0.0491632 30.0215 -0.0523602 1.38916 -0.265542 7.26059 -90.171 12.352 -0.608795 -0.27223 0.681189 -0.620185 -0.24518 -21.8546 -0.498837 -0.442618 -1.84192 -0.498837 -0.44262 98.3387 -54.0618 -87.8508 22.9359 -19.7177 -11.9245 3.43768 -12.746 -5.02006 -8.24546 -0.330774 -0.541261 -89.0225 -60.2634 81.777 -18.2774 7.59523 -24.4529 -5.25581 40.5368 -0.0112339 -4.38781 -0.0989139 -3.75494 13.7559 -0.845247 3.76312 -19.4836 -1.20782 -4.39243 
-7.09257 98.4001 2.33186 118.831 -85.7946 118.779 -174.555 2.97046 91.7175 -14.0438 7.13563 2.61646 66.1433 2.8424 -1.25544 29.1897 0.0105163 0.839913 174.3 2.98731 87.7441 -15.3114 -3.63051 0.541905 67.2902 -3.37601 0.113815 29.2812 0.0710187 1.13021 -0.201033 7.21369 -90.1478 12.446 -0.469723 -0.241443 0.775138 -0.479898 -0.220545 -21.7603 -0.375443 -0.37145 -1.74766 -0.375449 -0.371463 97.5419 -54.4908 -88.9969 21.3367 -20.3631 -14.7516 4.22716 -13.9968 -3.85394 -9.13496 -0.422685 0.207106 -89.6419 -60.076 80.9121 -18.1006 7.2305 -27.5793 -5.05681 42.1299 -0.0111523 -4.70427 -0.092278 -4.33544 13.1606 -0.940751 4.18236 -19.1079 -1.37819 -4.58246 
-7.10579 98.3991 2.4692 118.132 -85.8177 118.2 -174.502 3.02779 91.8388 -14.2071 7.26858 2.62848 66.2724 2.87877 -1.31752 29.2754 0.0190949 1.0935 174.287 2.74917 87.8544 -14.9359 -3.62977 0.623642 67.2805 -3.47931 -0.0234326 29.6116 -0.045394 0.888704 -0.211846 7.14494 -90.1788 12.5833 -0.506005 -0.29818 0.912417 -0.518637 -0.275625 -21.623 -0.392996 -0.436476 -1.61034 -0.393003 -0.436479 96.8148 -54.4099 -90.0766 19.9472 -21.4581 -16.9036 3.89831 -14.1841 -5.21568 -8.5251 -0.360421 -0.274948 -89.8476 -60.2077 80.6585 -17.0563 8.27975 -29.5037 -5.56581 38.8991 -0.0107093 -2.42274 -0.0908577 -3.61241 13.1267 -0.736655 4.73082 -19.8315 -1.31386 -4.39926 
-7.15139 98.4052 2.58731 120.725 -86.1887 120.763 -174.423 2.90584 91.8454 -14.165 6.91572 2.57882 66.3216 2.875 -1.29225 29.2543 0.0201071 1.07616 174.45 2.95655 87.8694 -15.3299 -3.40331 0.433335 67.3066 -3.0147 0.617722 29.5404 0.0554031 1.37904 -0.1461 7.10118 -90.1916 12.6709 -0.381636 -0.337948 0.999969 -0.396139 -0.320832 -21.5351 -0.262422 -0.437013 -1.52244 -0.26243 -0.437029 96.8521 -54.4346 -90.0191 18.2046 -22.8625 -19.4016 3.3967 -13.3799 -7.35759 -9.3366 -0.328374 -1.15133 -89.7846 -60.0724 80.7198 -15.5884 10.4997 -30.9979 -6.07376 35.4942 -0.468098 -1.51605 -0.0925834 -4.55382 12.7192 -0.349659 5.06667 -19.6166 -0.984649 -4.59249 
